<svg xmlns="http://www.w3.org/2000/svg" xmlns:xlink="http://www.w3.org/1999/xlink" width="865" zoomAndPan="magnify" viewBox="0 0 648.75 351.749992" height="469" preserveAspectRatio="xMidYMid meet" version="1.0"><defs><g/></defs><g fill="#000000" fill-opacity="1"><g transform="translate(20.090022, 109.671421)"><g><path d="M 27.578125 0.5 L 35.265625 0.5 L 35.265625 -6.59375 L 41.5625 -6.59375 L 41.5625 -14.1875 L 56.0625 -14.1875 L 56.0625 -6.59375 L 62.453125 -6.59375 L 62.453125 0.5 L 70.140625 0.5 L 70.140625 -6.59375 L 76.234375 -6.59375 L 76.234375 -14.1875 L 80.84375 -14.1875 L 80.84375 -21.6875 L 91.125 -21.6875 L 91.125 -72.046875 L 73.140625 -72.046875 L 73.140625 -21.6875 L 68.546875 -21.6875 L 68.546875 -14.1875 L 63.75 -14.1875 L 63.75 -21.6875 L 57.859375 -21.6875 L 57.859375 -72.046875 L 39.875 -72.046875 L 39.875 -21.6875 L 33.875 -21.6875 L 33.875 -14.1875 L 29.078125 -14.1875 L 29.078125 -21.6875 L 24.375 -21.6875 L 24.375 -72.046875 L 6.5 -72.046875 L 6.5 -21.6875 L 16.59375 -21.6875 L 16.59375 -14.1875 L 21.390625 -14.1875 L 21.390625 -6.59375 L 27.578125 -6.59375 Z M 27.578125 0.5 "/></g></g></g><g fill="#000000" fill-opacity="1"><g transform="translate(117.705345, 109.671421)"><g><path d="M 24.375 -32.171875 L 24.375 -44.171875 L 45.46875 -44.171875 L 45.46875 -32.171875 Z M 24.375 -8.390625 L 24.375 -22.28125 L 55.359375 -22.28125 L 55.359375 -31.171875 L 63.34375 -31.171875 L 63.34375 -44.171875 L 55.359375 -44.171875 L 55.359375 -54.0625 L 14.484375 -54.0625 L 14.484375 -44.171875 L 6.5 -44.171875 L 6.5 -8.390625 L 14.484375 -8.390625 L 14.484375 1.5 L 55.359375 1.5 L 55.359375 -8.390625 L 63.34375 -8.390625 L 63.34375 -18.28125 L 45.46875 -18.28125 L 45.46875 -8.390625 Z M 24.375 -8.390625 "/></g></g></g><g fill="#000000" fill-opacity="1"><g transform="translate(187.54476, 109.671421)"><g><path d="M 22.875 -72.046875 L 5 -72.046875 L 5 -9.390625 L 12.984375 -9.390625 L 12.984375 0.5 L 30.875 0.5 L 30.875 -9.390625 L 22.875 -9.390625 Z M 22.875 -72.046875 "/></g></g></g><g fill="#000000" fill-opacity="1"><g transform="translate(215.420572, 109.671421)"><g><path d="M 22.875 -72.046875 L 5 -72.046875 L 5 -9.390625 L 12.984375 -9.390625 L 12.984375 0.5 L 30.875 0.5 L 30.875 -9.390625 L 22.875 -9.390625 Z M 22.875 -72.046875 "/></g></g></g><g fill="#000000" fill-opacity="1"><g transform="translate(243.296419, 109.671421)"><g><path d="M 63.34375 0.5 L 63.34375 -9.390625 L 34.265625 -9.390625 L 34.265625 -19.28125 L 24.375 -19.28125 L 24.375 -52.265625 L 34.265625 -52.265625 L 34.265625 -62.15625 L 63.34375 -62.15625 L 63.34375 -72.046875 L 24.375 -72.046875 L 24.375 -62.15625 L 14.484375 -62.15625 L 14.484375 -52.265625 L 6.5 -52.265625 L 6.5 -19.28125 L 14.484375 -19.28125 L 14.484375 -9.390625 L 24.375 -9.390625 L 24.375 0.5 Z M 63.34375 0.5 "/></g></g></g><g fill="#000000" fill-opacity="1"><g transform="translate(313.035895, 109.671421)"><g><path d="M 19.390625 -8.390625 L 19.390625 0.5 L 50.453125 0.5 L 50.453125 -8.390625 L 56.359375 -8.390625 L 56.359375 -14.28125 L 63.34375 -14.28125 L 63.34375 -38.265625 L 56.359375 -38.265625 L 56.359375 -46.15625 L 50.453125 -46.15625 L 50.453125 -54.0625 L 19.390625 -54.0625 L 19.390625 -46.15625 L 13.484375 -46.15625 L 13.484375 -38.265625 L 6.5 -38.265625 L 6.5 -14.28125 L 13.484375 -14.28125 L 13.484375 -8.390625 Z M 29.28125 -8.390625 L 29.28125 -17.28125 L 23.375 -17.28125 L 23.375 -38.265625 L 29.28125 -38.265625 L 29.28125 -46.15625 L 40.5625 -46.15625 L 40.5625 -38.265625 L 46.46875 -38.265625 L 46.46875 -17.28125 L 40.5625 -17.28125 L 40.5625 -8.390625 Z M 29.28125 -8.390625 "/></g></g></g><g fill="#000000" fill-opacity="1"><g transform="translate(382.875322, 109.671421)"><g><path d="M 68.953125 -54.0625 L 6.5 -54.0625 L 6.5 0.5 L 24.375 0.5 L 24.375 -44.171875 L 32.78125 -44.171875 L 32.78125 0.5 L 50.65625 0.5 L 50.65625 -44.171875 L 59.046875 -44.171875 L 59.046875 0.5 L 76.9375 0.5 L 76.9375 -44.171875 L 68.953125 -44.171875 Z M 68.953125 -54.0625 "/></g></g></g><g fill="#000000" fill-opacity="1"><g transform="translate(466.302961, 109.671421)"><g><path d="M 24.375 -32.171875 L 24.375 -44.171875 L 45.46875 -44.171875 L 45.46875 -32.171875 Z M 24.375 -8.390625 L 24.375 -22.28125 L 55.359375 -22.28125 L 55.359375 -31.171875 L 63.34375 -31.171875 L 63.34375 -44.171875 L 55.359375 -44.171875 L 55.359375 -54.0625 L 14.484375 -54.0625 L 14.484375 -44.171875 L 6.5 -44.171875 L 6.5 -8.390625 L 14.484375 -8.390625 L 14.484375 1.5 L 55.359375 1.5 L 55.359375 -8.390625 L 63.34375 -8.390625 L 63.34375 -18.28125 L 45.46875 -18.28125 L 45.46875 -8.390625 Z M 24.375 -8.390625 "/></g></g></g><g fill="#000000" fill-opacity="1"><g transform="translate(536.145086, 109.671421)"><g/></g></g><g fill="#000000" fill-opacity="1"><g transform="translate(181.015827, 153.858359)"><g><path d="M 9.0625 -29.203125 C 8.875 -29.203125 8.515625 -29.160156 7.984375 -29.078125 C 7.460938 -28.992188 6.847656 -28.890625 6.140625 -28.765625 C 5.441406 -28.648438 4.707031 -28.515625 3.9375 -28.359375 C 3.164062 -28.210938 2.4375 -28.082031 1.75 -27.96875 C 1.070312 -27.851562 0.484375 -27.753906 -0.015625 -27.671875 C -0.515625 -27.585938 -0.847656 -27.546875 -1.015625 -27.546875 C -2.585938 -27.546875 -3.375 -28.363281 -3.375 -30 C -3.375 -30.445312 -3.332031 -30.882812 -3.25 -31.3125 C -3.164062 -31.75 -3.019531 -32.148438 -2.8125 -32.515625 C -2.601562 -32.878906 -2.320312 -33.1875 -1.96875 -33.4375 C -1.613281 -33.695312 -1.164062 -33.875 -0.625 -33.96875 C 2.113281 -34.394531 4.835938 -34.84375 7.546875 -35.3125 C 10.265625 -35.78125 13.007812 -36.269531 15.78125 -36.78125 C 16.382812 -36.894531 16.929688 -37.003906 17.421875 -37.109375 C 17.910156 -37.222656 18.460938 -37.375 19.078125 -37.5625 C 19.734375 -37.75 20.445312 -37.925781 21.21875 -38.09375 C 21.988281 -38.269531 22.765625 -38.425781 23.546875 -38.5625 C 24.335938 -38.707031 25.101562 -38.828125 25.84375 -38.921875 C 26.582031 -39.015625 27.253906 -39.0625 27.859375 -39.0625 C 28.609375 -39.0625 29.175781 -38.820312 29.5625 -38.34375 C 29.945312 -37.863281 30.140625 -37.191406 30.140625 -36.328125 C 30.140625 -35.878906 30.101562 -35.453125 30.03125 -35.046875 C 29.96875 -34.640625 29.84375 -34.269531 29.65625 -33.9375 C 29.46875 -33.613281 29.207031 -33.34375 28.875 -33.125 C 28.550781 -32.914062 28.128906 -32.789062 27.609375 -32.75 C 26.273438 -32.5625 24.847656 -32.332031 23.328125 -32.0625 C 21.804688 -31.789062 20.484375 -31.488281 19.359375 -31.15625 C 18.890625 -31.019531 18.535156 -30.789062 18.296875 -30.46875 C 18.066406 -30.15625 17.914062 -29.765625 17.84375 -29.296875 C 17.78125 -28.859375 17.738281 -28.410156 17.71875 -27.953125 C 17.707031 -27.492188 17.703125 -27.050781 17.703125 -26.625 C 17.703125 -25.644531 17.742188 -24.660156 17.828125 -23.671875 C 17.910156 -22.691406 17.988281 -21.710938 18.0625 -20.734375 C 18.269531 -17.359375 18.585938 -14.019531 19.015625 -10.71875 C 19.453125 -7.414062 19.929688 -4.078125 20.453125 -0.703125 C 20.492188 -0.585938 20.515625 -0.46875 20.515625 -0.34375 C 20.515625 -0.226562 20.515625 -0.113281 20.515625 0 C 20.515625 1.289062 19.789062 2.203125 18.34375 2.734375 L 16.765625 3.234375 C 16.335938 3.367188 15.925781 3.4375 15.53125 3.4375 C 14.914062 3.4375 14.421875 3.242188 14.046875 2.859375 C 13.671875 2.472656 13.425781 1.90625 13.3125 1.15625 C 12.65625 -2.875 12.082031 -6.882812 11.59375 -10.875 C 11.101562 -14.863281 10.785156 -18.882812 10.640625 -22.9375 C 10.597656 -23.59375 10.5625 -24.304688 10.53125 -25.078125 C 10.507812 -25.859375 10.5 -26.65625 10.5 -27.46875 C 10.5 -28.625 10.019531 -29.203125 9.0625 -29.203125 Z M 9.0625 -29.203125 "/></g></g><g transform="translate(208.699275, 153.858359)"><g><path d="M 3.375 -11.671875 C 3.375 -12.066406 3.421875 -12.507812 3.515625 -13 C 3.609375 -13.488281 3.65625 -14.023438 3.65625 -14.609375 C 3.65625 -15.015625 3.484375 -15.320312 3.140625 -15.53125 C 2.804688 -15.738281 2.425781 -15.972656 2 -16.234375 C 1.582031 -16.492188 1.203125 -16.820312 0.859375 -17.21875 C 0.515625 -17.613281 0.34375 -18.1875 0.34375 -18.9375 C 0.34375 -19.476562 0.488281 -20.015625 0.78125 -20.546875 C 1.082031 -21.085938 1.515625 -21.582031 2.078125 -22.03125 C 3.453125 -23.0625 4.882812 -23.984375 6.375 -24.796875 C 7.863281 -25.617188 9.347656 -26.3125 10.828125 -26.875 C 12.316406 -27.4375 13.785156 -27.867188 15.234375 -28.171875 C 16.691406 -28.484375 18.085938 -28.640625 19.421875 -28.640625 C 21.671875 -28.640625 23.785156 -28.222656 25.765625 -27.390625 C 27.742188 -26.554688 29.460938 -25.414062 30.921875 -23.96875 C 32.390625 -22.53125 33.550781 -20.84375 34.40625 -18.90625 C 35.269531 -16.976562 35.703125 -14.914062 35.703125 -12.71875 C 35.703125 -10.5625 35.25 -8.515625 34.34375 -6.578125 C 33.4375 -4.648438 32.222656 -2.957031 30.703125 -1.5 C 29.179688 -0.0507812 27.394531 1.097656 25.34375 1.953125 C 23.300781 2.804688 21.140625 3.234375 18.859375 3.234375 C 16.640625 3.234375 14.582031 2.859375 12.6875 2.109375 C 10.789062 1.359375 9.148438 0.320312 7.765625 -1 C 6.378906 -2.320312 5.300781 -3.890625 4.53125 -5.703125 C 3.757812 -7.523438 3.375 -9.515625 3.375 -11.671875 Z M 19.640625 -3.09375 C 20.617188 -3.09375 21.632812 -3.289062 22.6875 -3.6875 C 23.75 -4.082031 24.71875 -4.660156 25.59375 -5.421875 C 26.46875 -6.179688 27.191406 -7.113281 27.765625 -8.21875 C 28.347656 -9.320312 28.640625 -10.566406 28.640625 -11.953125 C 28.640625 -13.347656 28.378906 -14.65625 27.859375 -15.875 C 27.347656 -17.09375 26.640625 -18.148438 25.734375 -19.046875 C 24.828125 -19.953125 23.757812 -20.660156 22.53125 -21.171875 C 21.300781 -21.691406 19.972656 -21.953125 18.546875 -21.953125 C 15.953125 -21.953125 13.960938 -21.28125 12.578125 -19.9375 C 11.191406 -18.59375 10.5 -16.523438 10.5 -13.734375 C 10.5 -12.210938 10.726562 -10.800781 11.1875 -9.5 C 11.644531 -8.195312 12.28125 -7.070312 13.09375 -6.125 C 13.914062 -5.175781 14.882812 -4.429688 16 -3.890625 C 17.113281 -3.359375 18.328125 -3.09375 19.640625 -3.09375 Z M 19.640625 -3.09375 "/></g></g><g transform="translate(246.043824, 153.858359)"><g/></g><g transform="translate(263.082495, 153.858359)"><g><path d="M 37 -19.140625 C 36.71875 -19.140625 36.46875 -18.921875 36.25 -18.484375 C 35.363281 -16.742188 34.421875 -15.171875 33.421875 -13.765625 C 32.429688 -12.367188 31.429688 -11.175781 30.421875 -10.1875 C 29.421875 -9.207031 28.425781 -8.453125 27.4375 -7.921875 C 26.457031 -7.390625 25.53125 -7.125 24.65625 -7.125 C 23.820312 -7.125 23.046875 -7.304688 22.328125 -7.671875 C 21.609375 -8.035156 20.832031 -8.722656 20 -9.734375 C 19.175781 -10.742188 18.226562 -12.132812 17.15625 -13.90625 C 16.09375 -15.6875 14.789062 -18.007812 13.25 -20.875 C 12.988281 -21.34375 12.722656 -21.6875 12.453125 -21.90625 C 12.179688 -22.125 11.941406 -22.234375 11.734375 -22.234375 C 11.429688 -22.234375 11.148438 -21.910156 10.890625 -21.265625 C 10.628906 -20.628906 10.40625 -19.726562 10.21875 -18.5625 C 10.03125 -17.40625 9.882812 -16.015625 9.78125 -14.390625 C 9.675781 -12.765625 9.625 -10.96875 9.625 -9 C 9.625 -7.820312 9.6875 -6.644531 9.8125 -5.46875 C 9.945312 -4.300781 10.015625 -3.097656 10.015625 -1.859375 C 10.015625 -1.441406 9.894531 -1.050781 9.65625 -0.6875 C 9.425781 -0.320312 9.117188 -0.00390625 8.734375 0.265625 C 8.347656 0.535156 7.890625 0.75 7.359375 0.90625 C 6.828125 1.070312 6.269531 1.15625 5.6875 1.15625 C 4.519531 1.15625 3.675781 0.453125 3.15625 -0.953125 C 2.644531 -2.359375 2.390625 -4.601562 2.390625 -7.6875 C 2.390625 -11.601562 2.601562 -15.160156 3.03125 -18.359375 C 3.46875 -21.554688 4.085938 -24.296875 4.890625 -26.578125 C 5.703125 -28.859375 6.664062 -30.625 7.78125 -31.875 C 8.894531 -33.132812 10.144531 -33.765625 11.53125 -33.765625 C 12.738281 -33.765625 13.898438 -33.066406 15.015625 -31.671875 C 16.128906 -30.273438 17.332031 -28.019531 18.625 -24.90625 C 19.132812 -23.644531 19.6875 -22.460938 20.28125 -21.359375 C 20.882812 -20.253906 21.484375 -19.296875 22.078125 -18.484375 C 22.679688 -17.679688 23.257812 -17.050781 23.8125 -16.59375 C 24.375 -16.144531 24.878906 -15.921875 25.328125 -15.921875 C 25.773438 -15.921875 26.203125 -16.019531 26.609375 -16.21875 C 27.023438 -16.414062 27.492188 -16.847656 28.015625 -17.515625 C 28.546875 -18.179688 29.164062 -19.15625 29.875 -20.4375 C 30.59375 -21.726562 31.476562 -23.453125 32.53125 -25.609375 C 33.09375 -26.734375 33.597656 -27.671875 34.046875 -28.421875 C 34.492188 -29.171875 34.9375 -29.773438 35.375 -30.234375 C 35.820312 -30.691406 36.289062 -31.019531 36.78125 -31.21875 C 37.269531 -31.414062 37.820312 -31.515625 38.4375 -31.515625 C 39.164062 -31.515625 39.878906 -31.128906 40.578125 -30.359375 C 41.285156 -29.585938 41.972656 -28.554688 42.640625 -27.265625 C 43.304688 -25.972656 43.953125 -24.472656 44.578125 -22.765625 C 45.210938 -21.054688 45.828125 -19.265625 46.421875 -17.390625 C 47.023438 -15.515625 47.613281 -13.609375 48.1875 -11.671875 C 48.757812 -9.742188 49.316406 -7.914062 49.859375 -6.1875 C 49.992188 -5.664062 50.085938 -5.304688 50.140625 -5.109375 C 50.203125 -4.910156 50.234375 -4.671875 50.234375 -4.390625 C 50.234375 -3.992188 50.109375 -3.601562 49.859375 -3.21875 C 49.617188 -2.832031 49.300781 -2.484375 48.90625 -2.171875 C 48.507812 -1.867188 48.054688 -1.625 47.546875 -1.4375 C 47.046875 -1.25 46.550781 -1.15625 46.0625 -1.15625 C 45.40625 -1.15625 44.894531 -1.226562 44.53125 -1.375 C 44.164062 -1.53125 43.878906 -1.8125 43.671875 -2.21875 C 43.554688 -2.425781 43.359375 -2.984375 43.078125 -3.890625 C 42.796875 -4.804688 42.460938 -5.890625 42.078125 -7.140625 C 41.691406 -8.398438 41.269531 -9.734375 40.8125 -11.140625 C 40.351562 -12.546875 39.894531 -13.835938 39.4375 -15.015625 C 38.976562 -16.203125 38.535156 -17.1875 38.109375 -17.96875 C 37.691406 -18.75 37.320312 -19.140625 37 -19.140625 Z M 37 -19.140625 "/></g></g><g transform="translate(313.004042, 153.858359)"><g><path d="M 17.5625 0.953125 C 16.15625 0.953125 14.75 0.609375 13.34375 -0.078125 C 11.945312 -0.773438 10.601562 -1.71875 9.3125 -2.90625 C 8.019531 -4.101562 6.820312 -5.515625 5.71875 -7.140625 C 4.625 -8.773438 3.664062 -10.535156 2.84375 -12.421875 C 2.019531 -14.304688 1.375 -16.28125 0.90625 -18.34375 C 0.4375 -20.40625 0.203125 -22.460938 0.203125 -24.515625 C 0.203125 -26.109375 0.53125 -27.25 1.1875 -27.9375 C 1.84375 -28.632812 2.910156 -28.984375 4.390625 -28.984375 C 6.242188 -28.984375 7.273438 -28.222656 7.484375 -26.703125 C 7.898438 -23.472656 8.484375 -20.554688 9.234375 -17.953125 C 9.984375 -15.347656 10.867188 -13.132812 11.890625 -11.3125 C 12.910156 -9.488281 14.046875 -8.082031 15.296875 -7.09375 C 16.554688 -6.113281 17.882812 -5.625 19.28125 -5.625 C 20.289062 -5.625 21.238281 -5.875 22.125 -6.375 C 23.019531 -6.875 23.796875 -7.582031 24.453125 -8.5 C 24.679688 -8.851562 24.835938 -9.191406 24.921875 -9.515625 C 25.003906 -9.847656 25.070312 -10.222656 25.125 -10.640625 C 25.238281 -12.304688 25.367188 -13.941406 25.515625 -15.546875 C 25.671875 -17.148438 25.820312 -18.757812 25.96875 -20.375 C 26.007812 -21.082031 26.097656 -21.65625 26.234375 -22.09375 C 26.378906 -22.539062 26.59375 -22.894531 26.875 -23.15625 C 27.15625 -23.414062 27.523438 -23.59375 27.984375 -23.6875 C 28.441406 -23.78125 29.019531 -23.828125 29.71875 -23.828125 C 30.519531 -23.828125 31.203125 -23.710938 31.765625 -23.484375 C 32.328125 -23.265625 32.78125 -22.898438 33.125 -22.390625 C 33.476562 -21.890625 33.726562 -21.234375 33.875 -20.421875 C 34.03125 -19.617188 34.109375 -18.617188 34.109375 -17.421875 C 34.109375 -16.390625 34.03125 -15.492188 33.875 -14.734375 C 33.726562 -13.972656 33.554688 -13.257812 33.359375 -12.59375 C 33.160156 -11.925781 32.972656 -11.269531 32.796875 -10.625 C 32.617188 -9.976562 32.507812 -9.269531 32.46875 -8.5 C 32.34375 -6.5625 32.234375 -4.878906 32.140625 -3.453125 C 32.046875 -2.035156 31.96875 -0.828125 31.90625 0.171875 C 31.851562 1.179688 31.804688 2.046875 31.765625 2.765625 C 31.734375 3.492188 31.707031 4.144531 31.6875 4.71875 C 31.664062 5.300781 31.65625 5.847656 31.65625 6.359375 C 31.65625 6.867188 31.65625 7.429688 31.65625 8.046875 C 31.65625 9.148438 31.703125 10.347656 31.796875 11.640625 C 31.890625 12.941406 31.988281 14.191406 32.09375 15.390625 C 32.195312 16.585938 32.296875 17.640625 32.390625 18.546875 C 32.484375 19.460938 32.53125 20.097656 32.53125 20.453125 C 32.53125 20.890625 32.390625 21.304688 32.109375 21.703125 C 31.828125 22.109375 31.453125 22.460938 30.984375 22.765625 C 30.515625 23.066406 29.960938 23.304688 29.328125 23.484375 C 28.703125 23.660156 28.035156 23.75 27.328125 23.75 C 26.722656 23.75 26.238281 23.539062 25.875 23.125 C 25.507812 22.71875 25.304688 22.175781 25.265625 21.5 C 25.191406 20.613281 25.128906 19.53125 25.078125 18.25 C 25.035156 16.976562 24.988281 15.617188 24.9375 14.171875 C 24.894531 12.734375 24.867188 11.269531 24.859375 9.78125 C 24.847656 8.289062 24.828125 6.90625 24.796875 5.625 C 24.773438 4.351562 24.765625 3.238281 24.765625 2.28125 C 24.765625 1.320312 24.765625 0.628906 24.765625 0.203125 C 24.765625 -0.210938 24.71875 -0.507812 24.625 -0.6875 C 24.53125 -0.863281 24.351562 -0.953125 24.09375 -0.953125 C 23.957031 -0.953125 23.769531 -0.910156 23.53125 -0.828125 C 23.300781 -0.742188 23.035156 -0.609375 22.734375 -0.421875 C 21.910156 0.0664062 21.078125 0.414062 20.234375 0.625 C 19.390625 0.84375 18.5 0.953125 17.5625 0.953125 Z M 17.5625 0.953125 "/></g></g></g><g fill="#000000" fill-opacity="1"><g transform="translate(106.169917, 240.6789)"><g><path d="M 44.6875 -73.992188 L 6.234375 -73.992188 L 6.234375 0 L 29.511719 0 L 29.511719 -22.34375 L 44.269531 -22.34375 C 61.105469 -22.34375 72.121094 -33.046875 72.121094 -48.21875 C 72.121094 -63.289062 61.3125 -73.992188 44.6875 -73.992188 Z M 29.511719 -40.007812 L 29.511719 -55.597656 L 39.800781 -55.597656 C 45.828125 -55.597656 48.84375 -53.105469 48.84375 -47.90625 C 48.84375 -42.609375 45.828125 -40.007812 39.800781 -40.007812 Z M 29.511719 -40.007812 "/></g></g></g><g fill="#000000" fill-opacity="1"><g transform="translate(179.847905, 240.6789)"><g><path d="M 32.734375 2.078125 C 50.921875 2.078125 62.871094 -9.351562 62.871094 -26.707031 C 62.871094 -44.0625 50.921875 -55.492188 32.734375 -55.492188 C 14.550781 -55.492188 2.597656 -44.0625 2.597656 -26.707031 C 2.597656 -9.351562 14.550781 2.078125 32.734375 2.078125 Z M 32.734375 -12.46875 C 26.914062 -12.46875 24.003906 -16.628906 24.003906 -26.707031 C 24.003906 -36.789062 26.914062 -40.945312 32.734375 -40.945312 C 38.554688 -40.945312 41.464844 -36.789062 41.464844 -26.707031 C 41.464844 -16.628906 38.554688 -12.46875 32.734375 -12.46875 Z M 32.734375 -12.46875 "/></g></g></g><g fill="#000000" fill-opacity="1"><g transform="translate(245.316392, 240.6789)"><g><path d="M 40.21875 -55.492188 C 32.527344 -55.492188 27.746094 -50.714844 25.355469 -46.140625 L 24.734375 -53.625 L 5.195312 -53.625 L 5.195312 0 L 26.1875 0 L 26.1875 -23.902344 C 26.1875 -32.421875 30.863281 -36.996094 40.945312 -36.996094 C 42.398438 -36.996094 44.0625 -36.890625 45.726562 -36.683594 L 45.726562 -54.765625 C 43.542969 -55.285156 41.777344 -55.492188 40.21875 -55.492188 Z M 40.21875 -55.492188 "/></g></g></g><g fill="#000000" fill-opacity="1"><g transform="translate(296.756006, 240.6789)"><g><path d="M 40.632812 -41.152344 L 40.632812 -53.625 L 30.761719 -53.414062 L 30.761719 -69.835938 L 9.769531 -69.835938 L 9.769531 -53.414062 L 1.558594 -53.625 L 1.558594 -41.152344 L 9.769531 -41.359375 L 9.769531 -18.707031 C 9.769531 -4.574219 14.339844 0 28.472656 0 L 40.632812 0 L 40.632812 -15.691406 L 35.957031 -15.691406 C 32.527344 -15.691406 30.761719 -17.667969 30.761719 -21.511719 L 30.761719 -41.359375 Z M 40.632812 -41.152344 "/></g></g></g><g fill="#000000" fill-opacity="1"><g transform="translate(342.747807, 247.20619)"><g><path d="M 71.5 -41.15625 C 71.769531 -41.082031 71.972656 -40.875 72.109375 -40.53125 C 72.253906 -40.1875 72.46875 -39.835938 72.75 -39.484375 C 71.632812 -38.867188 70.625 -38.5625 69.71875 -38.5625 C 68.820312 -38.5625 67.992188 -38.765625 67.234375 -39.171875 C 65.847656 -39.867188 64.460938 -40.269531 63.078125 -40.375 C 61.691406 -40.476562 60.269531 -40.460938 58.8125 -40.328125 C 48.144531 -39.347656 37.476562 -37.679688 26.8125 -35.328125 C 26.601562 -34.703125 26.375 -34.113281 26.125 -33.5625 C 25.882812 -33.007812 25.695312 -32.421875 25.5625 -31.796875 C 23 -22.023438 20.453125 -12.238281 17.921875 -2.4375 C 15.398438 7.363281 12.851562 17.179688 10.28125 27.015625 C 10.007812 28.191406 9.75 29.421875 9.5 30.703125 C 9.257812 31.984375 9.003906 33.316406 8.734375 34.703125 C 8.453125 34.703125 8.171875 34.753906 7.890625 34.859375 C 7.617188 34.960938 7.34375 34.984375 7.0625 34.921875 C 6.789062 34.773438 6.476562 34.5625 6.125 34.28125 C 5.78125 34.007812 5.578125 33.703125 5.515625 33.359375 C 5.367188 32.597656 5.257812 31.816406 5.1875 31.015625 C 5.125 30.222656 5.160156 29.445312 5.296875 28.6875 C 5.785156 25.5625 6.289062 22.441406 6.8125 19.328125 C 7.332031 16.210938 7.9375 13.09375 8.625 9.96875 C 10.144531 3.25 11.703125 -3.445312 13.296875 -10.125 C 14.890625 -16.8125 16.453125 -23.515625 17.984375 -30.234375 C 18.117188 -30.585938 18.21875 -30.972656 18.28125 -31.390625 C 18.351562 -31.804688 18.425781 -32.289062 18.5 -32.84375 C 17.25 -33.113281 16.050781 -33.09375 14.90625 -32.78125 C 13.769531 -32.46875 12.679688 -32.070312 11.640625 -31.59375 C 11.015625 -31.3125 10.351562 -31.082031 9.65625 -30.90625 C 8.96875 -30.738281 8.28125 -30.796875 7.59375 -31.078125 C 7.175781 -31.210938 6.757812 -31.414062 6.34375 -31.6875 C 5.925781 -31.96875 5.613281 -32.28125 5.40625 -32.625 C 5.195312 -33.113281 5.265625 -33.546875 5.609375 -33.921875 C 5.953125 -34.304688 6.332031 -34.601562 6.75 -34.8125 C 7.582031 -35.226562 8.394531 -35.609375 9.1875 -35.953125 C 9.988281 -36.304688 10.769531 -36.617188 11.53125 -36.890625 C 12.914062 -37.304688 14.285156 -37.722656 15.640625 -38.140625 C 16.992188 -38.554688 18.328125 -38.972656 19.640625 -39.390625 C 19.921875 -39.941406 20.335938 -41.222656 20.890625 -43.234375 C 21.441406 -45.242188 22.097656 -47.664062 22.859375 -50.5 C 23.617188 -53.34375 24.378906 -56.320312 25.140625 -59.4375 C 25.910156 -62.5625 26.640625 -65.5625 27.328125 -68.4375 C 28.023438 -71.3125 28.582031 -73.800781 29 -75.90625 C 29.414062 -78.019531 29.65625 -79.425781 29.71875 -80.125 C 29.375 -80.125 29.007812 -80.125 28.625 -80.125 C 28.25 -80.125 27.890625 -80.085938 27.546875 -80.015625 C 25.046875 -79.597656 22.546875 -79.128906 20.046875 -78.609375 C 17.554688 -78.097656 15.097656 -77.597656 12.671875 -77.109375 C 11.773438 -76.898438 11.097656 -76.773438 10.640625 -76.734375 C 10.191406 -76.703125 9.722656 -76.789062 9.234375 -77 C 8.753906 -77.207031 8.03125 -77.554688 7.0625 -78.046875 C 7.414062 -78.390625 7.710938 -78.769531 7.953125 -79.1875 C 8.191406 -79.601562 8.484375 -79.914062 8.828125 -80.125 C 10.078125 -80.675781 11.304688 -81.210938 12.515625 -81.734375 C 13.734375 -82.253906 15 -82.722656 16.3125 -83.140625 C 18.1875 -83.691406 20.078125 -84.207031 21.984375 -84.6875 C 23.890625 -85.175781 25.8125 -85.664062 27.75 -86.15625 C 28.4375 -86.363281 29.125 -86.550781 29.8125 -86.71875 C 30.507812 -86.894531 31.273438 -87.085938 32.109375 -87.296875 C 32.453125 -88.398438 32.816406 -89.503906 33.203125 -90.609375 C 33.585938 -91.722656 33.984375 -92.835938 34.390625 -93.953125 C 34.671875 -94.710938 34.96875 -95.453125 35.28125 -96.171875 C 35.59375 -96.898438 35.921875 -97.613281 36.265625 -98.3125 C 36.753906 -99.351562 37.617188 -99.941406 38.859375 -100.078125 C 39.628906 -100.148438 40.238281 -99.992188 40.6875 -99.609375 C 41.132812 -99.222656 41.359375 -98.6875 41.359375 -98 C 41.285156 -97.375 41.195312 -96.75 41.09375 -96.125 C 40.988281 -95.5 40.867188 -94.875 40.734375 -94.25 C 40.597656 -93.425781 40.457031 -92.578125 40.3125 -91.703125 C 40.175781 -90.835938 40.003906 -89.890625 39.796875 -88.859375 C 41.390625 -88.785156 42.914062 -88.816406 44.375 -88.953125 C 45.832031 -89.097656 47.253906 -89.238281 48.640625 -89.375 C 54.179688 -89.71875 59.703125 -90.078125 65.203125 -90.453125 C 70.710938 -90.835938 76.238281 -91.171875 81.78125 -91.453125 C 83.863281 -91.523438 85.925781 -91.507812 87.96875 -91.40625 C 90.007812 -91.300781 92.070312 -91.109375 94.15625 -90.828125 C 95.539062 -90.691406 96.90625 -90.394531 98.25 -89.9375 C 99.601562 -89.488281 100.941406 -89.023438 102.265625 -88.546875 C 102.609375 -88.472656 102.9375 -88.28125 103.25 -87.96875 C 103.5625 -87.65625 103.992188 -87.328125 104.546875 -86.984375 C 104.054688 -86.640625 103.65625 -86.328125 103.34375 -86.046875 C 103.03125 -85.765625 102.703125 -85.625 102.359375 -85.625 C 101.878906 -85.488281 101.34375 -85.382812 100.75 -85.3125 C 100.164062 -85.25 99.628906 -85.320312 99.140625 -85.53125 C 95.265625 -86.914062 91.347656 -87.503906 87.390625 -87.296875 C 83.441406 -87.085938 79.53125 -86.8125 75.65625 -86.46875 C 71.976562 -86.1875 68.335938 -85.851562 64.734375 -85.46875 C 61.140625 -85.09375 57.539062 -84.695312 53.9375 -84.28125 C 51.300781 -83.9375 48.703125 -83.554688 46.140625 -83.140625 C 43.578125 -82.722656 40.945312 -82.34375 38.25 -82 C 36.582031 -75.207031 34.914062 -68.46875 33.25 -61.78125 C 31.59375 -55.09375 29.929688 -48.320312 28.265625 -41.46875 C 28.753906 -41.46875 29.222656 -41.429688 29.671875 -41.359375 C 30.117188 -41.285156 30.550781 -41.285156 30.96875 -41.359375 C 34.707031 -41.773438 38.460938 -42.191406 42.234375 -42.609375 C 46.015625 -43.023438 49.8125 -43.441406 53.625 -43.859375 C 55.769531 -44.066406 57.898438 -44.171875 60.015625 -44.171875 C 62.128906 -44.171875 64.257812 -43.925781 66.40625 -43.4375 C 67.300781 -43.226562 68.164062 -42.898438 69 -42.453125 C 69.832031 -42.003906 70.664062 -41.570312 71.5 -41.15625 Z M 71.5 -41.15625 "/></g></g></g><g fill="#000000" fill-opacity="1"><g transform="translate(407.488876, 247.20619)"><g><path d="M 24.734375 -10.703125 C 25.359375 -10.910156 25.789062 -10.992188 26.03125 -10.953125 C 26.269531 -10.921875 26.773438 -10.695312 27.546875 -10.28125 C 26.710938 -9.382812 25.945312 -8.726562 25.25 -8.3125 C 24.5625 -7.894531 23.628906 -7.617188 22.453125 -7.484375 C 21.273438 -7.347656 19.539062 -7.242188 17.25 -7.171875 C 16.28125 -6.265625 15.363281 -5.394531 14.5 -4.5625 C 13.632812 -3.738281 12.785156 -2.910156 11.953125 -2.078125 C 10.910156 -1.035156 9.832031 -0.132812 8.71875 0.625 C 7.613281 1.382812 6.441406 1.867188 5.203125 2.078125 C 4.367188 2.210938 3.535156 2.265625 2.703125 2.234375 C 1.867188 2.203125 1.070312 2.082031 0.3125 1.875 C -2.320312 1.039062 -3.328125 -1.316406 -2.703125 -5.203125 C -2.492188 -6.585938 -2.144531 -7.882812 -1.65625 -9.09375 C -1.175781 -10.300781 -0.625 -11.460938 0 -12.578125 C 0.488281 -13.472656 1.007812 -14.367188 1.5625 -15.265625 C 2.113281 -16.171875 2.703125 -17.109375 3.328125 -18.078125 C 3.253906 -20.085938 3.597656 -21.851562 4.359375 -23.375 C 5.128906 -24.90625 6.101562 -26.328125 7.28125 -27.640625 C 8.457031 -28.890625 9.664062 -29.960938 10.90625 -30.859375 C 12.15625 -31.765625 13.507812 -32.390625 14.96875 -32.734375 C 16.070312 -32.941406 17.003906 -33.007812 17.765625 -32.9375 C 21.234375 -32.457031 22.898438 -29.863281 22.765625 -25.15625 C 22.691406 -23.28125 22.425781 -21.472656 21.96875 -19.734375 C 21.519531 -18.003906 20.953125 -16.3125 20.265625 -14.65625 C 20.054688 -13.957031 19.8125 -13.242188 19.53125 -12.515625 C 19.257812 -11.796875 18.953125 -11.050781 18.609375 -10.28125 C 19.710938 -9.875 20.765625 -9.753906 21.765625 -9.921875 C 22.773438 -10.097656 23.765625 -10.359375 24.734375 -10.703125 Z M 3.328125 -0.3125 C 4.222656 -0.445312 5.257812 -0.929688 6.4375 -1.765625 C 7.613281 -2.597656 8.738281 -3.617188 9.8125 -4.828125 C 10.894531 -6.046875 11.742188 -7.273438 12.359375 -8.515625 C 11.742188 -8.929688 11.125 -9.328125 10.5 -9.703125 C 9.875 -10.085938 9.285156 -10.523438 8.734375 -11.015625 C 8.109375 -11.429688 7.515625 -11.914062 6.953125 -12.46875 C 6.398438 -13.019531 5.78125 -13.578125 5.09375 -14.140625 C 4.1875 -12.953125 3.488281 -11.703125 3 -10.390625 C 2.519531 -9.078125 2.070312 -7.726562 1.65625 -6.34375 C 1.519531 -5.71875 1.429688 -5.039062 1.390625 -4.3125 C 1.359375 -3.582031 1.34375 -2.875 1.34375 -2.1875 C 1.414062 -0.726562 2.078125 -0.101562 3.328125 -0.3125 Z M 14.65625 -11.640625 C 15.96875 -13.859375 16.988281 -16.160156 17.71875 -18.546875 C 18.445312 -20.941406 18.773438 -23.488281 18.703125 -26.1875 C 18.703125 -26.945312 18.613281 -27.691406 18.4375 -28.421875 C 18.269531 -29.148438 17.835938 -29.722656 17.140625 -30.140625 C 15.691406 -29.515625 14.410156 -28.578125 13.296875 -27.328125 C 12.191406 -26.078125 11.1875 -24.585938 10.28125 -22.859375 C 9.9375 -22.097656 9.726562 -21.316406 9.65625 -20.515625 C 9.59375 -19.722656 9.664062 -18.878906 9.875 -17.984375 C 10.289062 -16.390625 10.894531 -15.085938 11.6875 -14.078125 C 12.488281 -13.078125 13.476562 -12.265625 14.65625 -11.640625 Z M 14.65625 -11.640625 "/></g></g></g><g fill="#000000" fill-opacity="1"><g transform="translate(433.364549, 247.20619)"><g><path d="M 9.96875 -24.9375 C 8.863281 -21.269531 7.878906 -17.597656 7.015625 -13.921875 C 6.148438 -10.253906 5.507812 -6.515625 5.09375 -2.703125 C 4.957031 -1.179688 4.90625 0.320312 4.9375 1.8125 C 4.96875 3.300781 5.191406 4.773438 5.609375 6.234375 C 6.160156 7.960938 6.921875 9.117188 7.890625 9.703125 C 8.867188 10.296875 10.257812 10.351562 12.0625 9.875 C 12.882812 9.59375 13.691406 9.28125 14.484375 8.9375 C 15.285156 8.59375 16.066406 8.210938 16.828125 7.796875 C 18.835938 6.617188 20.691406 5.265625 22.390625 3.734375 C 24.085938 2.210938 25.628906 0.519531 27.015625 -1.34375 C 27.429688 -1.90625 27.863281 -2.476562 28.3125 -3.0625 C 28.769531 -3.65625 29.238281 -4.191406 29.71875 -4.671875 C 30.625 -5.640625 31.59375 -5.710938 32.625 -4.890625 C 32.695312 -4.609375 32.734375 -4.429688 32.734375 -4.359375 C 30.660156 0.273438 27.890625 4.117188 24.421875 7.171875 C 20.953125 10.222656 16.625 12.234375 11.4375 13.203125 C 10.53125 13.335938 9.59375 13.382812 8.625 13.34375 C 7.65625 13.3125 6.71875 13.191406 5.8125 12.984375 C 0.476562 12.015625 -2.394531 8.929688 -2.8125 3.734375 C -2.875 2.003906 -2.867188 0.257812 -2.796875 -1.5 C -2.734375 -3.269531 -2.597656 -4.988281 -2.390625 -6.65625 C -1.835938 -11.019531 -0.9375 -15.28125 0.3125 -19.4375 C 1.5625 -23.59375 2.910156 -27.75 4.359375 -31.90625 C 8.035156 -42.5 11.953125 -53.007812 16.109375 -63.4375 C 20.265625 -73.863281 24.835938 -84.132812 29.828125 -94.25 C 31.078125 -96.820312 32.5 -99.285156 34.09375 -101.640625 C 34.644531 -102.535156 35.351562 -103.207031 36.21875 -103.65625 C 37.082031 -104.113281 38.140625 -104.097656 39.390625 -103.609375 C 39.316406 -103.328125 39.28125 -103.046875 39.28125 -102.765625 C 39.28125 -102.492188 39.242188 -102.289062 39.171875 -102.15625 C 37.785156 -99.039062 36.363281 -95.941406 34.90625 -92.859375 C 33.457031 -89.773438 32.109375 -86.640625 30.859375 -83.453125 C 27.054688 -73.816406 23.382812 -64.128906 19.84375 -54.390625 C 16.3125 -44.660156 13.019531 -34.84375 9.96875 -24.9375 Z M 9.96875 -24.9375 "/></g></g></g><g fill="#000000" fill-opacity="1"><g transform="translate(469.83985, 247.20619)"><g><path d="M 35.234375 -27.125 C 35.234375 -26.707031 35.265625 -26.320312 35.328125 -25.96875 C 35.398438 -25.625 35.398438 -25.351562 35.328125 -25.15625 C 34.984375 -24.382812 34.617188 -23.597656 34.234375 -22.796875 C 33.859375 -22.003906 33.425781 -21.226562 32.9375 -20.46875 C 30.726562 -16.863281 28.097656 -13.640625 25.046875 -10.796875 C 21.992188 -7.960938 18.664062 -5.4375 15.0625 -3.21875 C 11.945312 -1.207031 8.660156 -0.304688 5.203125 -0.515625 C 0.00390625 -0.796875 -2.28125 -3.460938 -1.65625 -8.515625 C -1.519531 -9.210938 -1.382812 -9.835938 -1.25 -10.390625 C -0.550781 -13.296875 0.347656 -16.097656 1.453125 -18.796875 C 2.566406 -21.503906 3.847656 -24.109375 5.296875 -26.609375 C 6.054688 -27.921875 6.816406 -28.660156 7.578125 -28.828125 C 8.347656 -29.003906 9.597656 -28.78125 11.328125 -28.15625 C 11.460938 -27.394531 11.390625 -26.648438 11.109375 -25.921875 C 10.835938 -25.203125 10.5625 -24.457031 10.28125 -23.6875 C 9.59375 -21.539062 8.898438 -19.375 8.203125 -17.1875 C 7.515625 -15.007812 6.859375 -12.8125 6.234375 -10.59375 C 5.816406 -9.28125 5.644531 -8.035156 5.71875 -6.859375 C 5.71875 -6.367188 5.835938 -5.878906 6.078125 -5.390625 C 6.316406 -4.910156 6.507812 -4.429688 6.65625 -3.953125 C 8.039062 -4.015625 9.269531 -4.304688 10.34375 -4.828125 C 11.414062 -5.347656 12.472656 -5.921875 13.515625 -6.546875 C 17.109375 -8.765625 20.429688 -11.289062 23.484375 -14.125 C 26.535156 -16.96875 29.304688 -20.125 31.796875 -23.59375 C 32.285156 -24.144531 32.738281 -24.785156 33.15625 -25.515625 C 33.570312 -26.242188 34.265625 -26.78125 35.234375 -27.125 Z M 13.40625 -37.9375 C 12.507812 -37.238281 11.46875 -36.972656 10.28125 -37.140625 C 9.101562 -37.316406 8.207031 -37.859375 7.59375 -38.765625 C 7.101562 -39.523438 6.992188 -40.40625 7.265625 -41.40625 C 7.546875 -42.414062 8.140625 -43.160156 9.046875 -43.640625 C 10.222656 -44.335938 11.46875 -44.71875 12.78125 -44.78125 C 14.09375 -44.851562 15.441406 -44.71875 16.828125 -44.375 C 16.421875 -43.40625 16.039062 -42.519531 15.6875 -41.71875 C 15.34375 -40.925781 14.960938 -40.148438 14.546875 -39.390625 C 14.335938 -38.898438 13.957031 -38.414062 13.40625 -37.9375 Z M 13.40625 -37.9375 "/></g></g></g><g fill="#000000" fill-opacity="1"><g transform="translate(497.793793, 247.20619)"><g><path d="M 24.734375 -10.703125 C 25.359375 -10.910156 25.789062 -10.992188 26.03125 -10.953125 C 26.269531 -10.921875 26.773438 -10.695312 27.546875 -10.28125 C 26.710938 -9.382812 25.945312 -8.726562 25.25 -8.3125 C 24.5625 -7.894531 23.628906 -7.617188 22.453125 -7.484375 C 21.273438 -7.347656 19.539062 -7.242188 17.25 -7.171875 C 16.28125 -6.265625 15.363281 -5.394531 14.5 -4.5625 C 13.632812 -3.738281 12.785156 -2.910156 11.953125 -2.078125 C 10.910156 -1.035156 9.832031 -0.132812 8.71875 0.625 C 7.613281 1.382812 6.441406 1.867188 5.203125 2.078125 C 4.367188 2.210938 3.535156 2.265625 2.703125 2.234375 C 1.867188 2.203125 1.070312 2.082031 0.3125 1.875 C -2.320312 1.039062 -3.328125 -1.316406 -2.703125 -5.203125 C -2.492188 -6.585938 -2.144531 -7.882812 -1.65625 -9.09375 C -1.175781 -10.300781 -0.625 -11.460938 0 -12.578125 C 0.488281 -13.472656 1.007812 -14.367188 1.5625 -15.265625 C 2.113281 -16.171875 2.703125 -17.109375 3.328125 -18.078125 C 3.253906 -20.085938 3.597656 -21.851562 4.359375 -23.375 C 5.128906 -24.90625 6.101562 -26.328125 7.28125 -27.640625 C 8.457031 -28.890625 9.664062 -29.960938 10.90625 -30.859375 C 12.15625 -31.765625 13.507812 -32.390625 14.96875 -32.734375 C 16.070312 -32.941406 17.003906 -33.007812 17.765625 -32.9375 C 21.234375 -32.457031 22.898438 -29.863281 22.765625 -25.15625 C 22.691406 -23.28125 22.425781 -21.472656 21.96875 -19.734375 C 21.519531 -18.003906 20.953125 -16.3125 20.265625 -14.65625 C 20.054688 -13.957031 19.8125 -13.242188 19.53125 -12.515625 C 19.257812 -11.796875 18.953125 -11.050781 18.609375 -10.28125 C 19.710938 -9.875 20.765625 -9.753906 21.765625 -9.921875 C 22.773438 -10.097656 23.765625 -10.359375 24.734375 -10.703125 Z M 3.328125 -0.3125 C 4.222656 -0.445312 5.257812 -0.929688 6.4375 -1.765625 C 7.613281 -2.597656 8.738281 -3.617188 9.8125 -4.828125 C 10.894531 -6.046875 11.742188 -7.273438 12.359375 -8.515625 C 11.742188 -8.929688 11.125 -9.328125 10.5 -9.703125 C 9.875 -10.085938 9.285156 -10.523438 8.734375 -11.015625 C 8.109375 -11.429688 7.515625 -11.914062 6.953125 -12.46875 C 6.398438 -13.019531 5.78125 -13.578125 5.09375 -14.140625 C 4.1875 -12.953125 3.488281 -11.703125 3 -10.390625 C 2.519531 -9.078125 2.070312 -7.726562 1.65625 -6.34375 C 1.519531 -5.71875 1.429688 -5.039062 1.390625 -4.3125 C 1.359375 -3.582031 1.34375 -2.875 1.34375 -2.1875 C 1.414062 -0.726562 2.078125 -0.101562 3.328125 -0.3125 Z M 14.65625 -11.640625 C 15.96875 -13.859375 16.988281 -16.160156 17.71875 -18.546875 C 18.445312 -20.941406 18.773438 -23.488281 18.703125 -26.1875 C 18.703125 -26.945312 18.613281 -27.691406 18.4375 -28.421875 C 18.269531 -29.148438 17.835938 -29.722656 17.140625 -30.140625 C 15.691406 -29.515625 14.410156 -28.578125 13.296875 -27.328125 C 12.191406 -26.078125 11.1875 -24.585938 10.28125 -22.859375 C 9.9375 -22.097656 9.726562 -21.316406 9.65625 -20.515625 C 9.59375 -19.722656 9.664062 -18.878906 9.875 -17.984375 C 10.289062 -16.390625 10.894531 -15.085938 11.6875 -14.078125 C 12.488281 -13.078125 13.476562 -12.265625 14.65625 -11.640625 Z M 14.65625 -11.640625 "/></g></g></g></svg>